<svg xmlns="http://www.w3.org/2000/svg" viewBox="0 0 512 512">
  <rect width="512" height="512" rx="96" fill="#121826"/>
  <circle cx="256" cy="184" r="92" fill="#3fb7a8"/>
  <path fill="#f7f3e8" d="M256 326c-92 0-166 49-166 110v18h332v-18c0-61-74-110-166-110Z"/>
  <path fill="#e9543f" d="M231 98c25-22 69-20 94 5 31 31 24 82-13 105-22 14-32 23-32 48h-58c0-54 27-75 54-91 18-11 21-32 8-45-12-13-35-13-48 0-8 8-12 18-12 29h-58c0-20 7-38 20-51Z"/>
  <circle cx="252" cy="286" r="30" fill="#e9543f"/>
</svg>
